<svg width="2647" height="3038" viewBox="0 0 2647 3038" fill="none" xmlns="http://www.w3.org/2000/svg">
<g filter="url(#filter0_d_56_35)">
<path d="M2587 582.001C2587 1883.74 1782 2978 1293.5 2978C805 2978 0 1883.74 0 582.001C0 582.001 988 268 1298.5 0C1594 275.5 2587 582.001 2587 582.001Z" fill="#6FFF7D"/>
<path d="M2574.27 583.261C2577.55 584.291 2580.13 585.101 2582 585.682C2581.24 1234.13 2380.55 1830.82 2119.15 2265.57C1988.21 2483.37 1842.11 2660.38 1698.45 2782.88C1554.66 2905.49 1413.89 2973 1293.5 2973C1173.11 2973 1032.34 2905.49 888.549 2782.88C744.885 2660.38 598.793 2483.37 467.848 2265.57C206.448 1830.81 5.75271 1234.12 5.00211 585.651C6.858 585.055 9.4395 584.224 12.7103 583.166C20.031 580.798 30.805 577.292 44.6255 572.734C72.2665 563.618 112.095 550.298 160.857 533.477C258.378 499.837 391.649 452.188 534.637 396.156C677.615 340.128 830.365 275.696 966.826 208.486C1101.24 142.283 1220.18 73.2301 1298.37 6.69317C1372.95 75.1116 1489.48 145.096 1622.25 211.634C1757.09 279.206 1909.08 343.41 2051.75 398.972C2194.43 454.538 2327.87 501.486 2425.62 534.542C2474.51 551.07 2514.47 564.127 2542.22 573.053C2556.1 577.516 2566.92 580.946 2574.27 583.261Z" stroke="#C0C0C0" stroke-width="10"/>
</g>
<path d="M680.726 1166.36C700.253 1146.83 731.911 1146.83 751.437 1166.36L1402.68 1817.6L1185.6 2034.68L534.355 1383.44C514.829 1363.91 514.829 1332.25 534.355 1312.73L680.726 1166.36Z" fill="white"/>
<path d="M1184 1601.6L1835.25 950.355C1854.77 930.829 1886.43 930.829 1905.96 950.355L2052.33 1096.73C2071.85 1116.25 2071.85 1147.91 2052.33 1167.44L1401.08 1818.68L1184 1601.6Z" fill="white"/>
<path d="M2212 2087C1918.5 2087 2080.6 2087 1918.5 2087C1756.4 2087 1918.5 2087 1625 2087C1625 1924.63 1756.4 1793 1918.5 1793C2080.6 1793 2212 1924.63 2212 2087Z" fill="black"/>
<path d="M2068 2091.26C1918 2091.26 2000.84 2091.26 1918 2091.26C1835.16 2091.26 1918 2091.26 1768 2091.26C1768 2008.27 1835.16 1941 1918 1941C2000.84 1941 2068 2008.27 2068 2091.26Z" fill="#6FFF7D"/>
<rect x="1518" y="2167" width="800" height="689" rx="99" fill="black"/>
<rect x="1625" y="2085" width="143" height="94" fill="black"/>
<rect x="2068" y="2085" width="144" height="94" fill="black"/>
<circle cx="1918" cy="2452" r="65" fill="white"/>
<path d="M1880 2476H1956V2598C1956 2618.99 1938.99 2636 1918 2636V2636C1897.01 2636 1880 2618.99 1880 2598V2476Z" fill="white"/>
<defs>
<filter id="filter0_d_56_35" x="0" y="0" width="2647" height="3038" filterUnits="userSpaceOnUse" color-interpolation-filters="sRGB">
<feFlood flood-opacity="0" result="BackgroundImageFix"/>
<feColorMatrix in="SourceAlpha" type="matrix" values="0 0 0 0 0 0 0 0 0 0 0 0 0 0 0 0 0 0 127 0" result="hardAlpha"/>
<feOffset dx="30" dy="30"/>
<feGaussianBlur stdDeviation="15"/>
<feComposite in2="hardAlpha" operator="out"/>
<feColorMatrix type="matrix" values="0 0 0 0 0.583333 0 0 0 0 0.583333 0 0 0 0 0.583333 0 0 0 0.25 0"/>
<feBlend mode="normal" in2="BackgroundImageFix" result="effect1_dropShadow_56_35"/>
<feBlend mode="normal" in="SourceGraphic" in2="effect1_dropShadow_56_35" result="shape"/>
</filter>
</defs>
</svg>
