<svg width="1069" height="782" viewBox="0 0 1069 782" fill="none" xmlns="http://www.w3.org/2000/svg">
<g filter="url(#filter0_d_53_3)">
<rect x="2" y="2" width="1057" height="770" rx="30" fill="white"/>
<circle cx="41" cy="66" r="10" fill="#008AD8"/>
<circle cx="41" cy="66" r="10" fill="#008AD8"/>
<circle cx="41" cy="66" r="10" fill="#008AD8"/>
<circle cx="41" cy="66" r="10" fill="#008AD8"/>
<circle cx="76" cy="66" r="10" fill="#FF5E5E"/>
<circle cx="111" cy="66" r="10" fill="#02C220"/>
<g filter="url(#filter1_d_53_3)">
<rect x="214" y="46" width="459" height="40" rx="20" fill="white"/>
<rect x="214.5" y="46.5" width="458" height="39" rx="19.5" stroke="#E0E0E0"/>
</g>
<circle cx="648.5" cy="62.5" r="8" stroke="#B9B9B9"/>
<line x1="643.41" y1="69.2867" x2="636.41" y2="79.2867" stroke="#B9B9B9"/>
<rect x="935" y="46" width="95" height="40" rx="5" fill="#32C1FF"/>
<rect x="51" y="165" width="676" height="26" rx="4" fill="#3C8AFF"/>
<rect x="51" y="198" width="635" height="17" rx="4" fill="#039F00"/>
<rect x="51" y="222" width="534" height="9" rx="4" fill="#EDEDED"/>
<rect x="51" y="235" width="569" height="9" rx="4" fill="#EDEDED"/>
<rect x="51" y="248" width="177" height="9" rx="4" fill="#EDEDED"/>
<rect x="51" y="308" width="476" height="26" rx="4" fill="#3C8AFF"/>
<rect x="51" y="341" width="553" height="17" rx="4" fill="#039F00"/>
<rect x="51" y="365" width="534" height="9" rx="4" fill="#EDEDED"/>
<rect x="51" y="378" width="425" height="9" rx="4" fill="#EDEDED"/>
<rect x="51" y="438" width="150" height="33" rx="4" fill="#3C8AFF"/>
<rect x="206" y="438" width="344" height="26" rx="4" fill="#3C8AFF"/>
<rect x="51" y="483" width="145" height="25" rx="4" fill="#039F00"/>
<rect x="210" y="471" width="129" height="17" rx="4" fill="#039F00"/>
<rect x="196" y="495" width="331" height="9" rx="4" fill="#EDEDED"/>
<rect x="61" y="520" width="114" height="14" rx="4" fill="#EDEDED"/>
<rect x="187" y="508" width="381" height="9" rx="4" fill="#EDEDED"/>
<rect x="179" y="521" width="376" height="9" rx="4" fill="#EDEDED"/>
<rect x="51" y="581" width="288" height="26" rx="4" fill="#3C8AFF"/>
<rect x="51" y="614" width="332" height="17" rx="4" fill="#039F00"/>
<rect x="51" y="638" width="443" height="9" rx="4" fill="#EDEDED"/>
<rect x="51" y="651" width="370" height="9" rx="4" fill="#EDEDED"/>
<path d="M961.148 71V59.3636H963.256V69.233H968.381V71H961.148ZM973.926 71.1705C973.074 71.1705 972.335 70.983 971.71 70.608C971.085 70.233 970.6 69.7083 970.256 69.0341C969.915 68.3598 969.744 67.572 969.744 66.6705C969.744 65.7689 969.915 64.9792 970.256 64.3011C970.6 63.6231 971.085 63.0966 971.71 62.7216C972.335 62.3466 973.074 62.1591 973.926 62.1591C974.778 62.1591 975.517 62.3466 976.142 62.7216C976.767 63.0966 977.25 63.6231 977.591 64.3011C977.936 64.9792 978.108 65.7689 978.108 66.6705C978.108 67.572 977.936 68.3598 977.591 69.0341C977.25 69.7083 976.767 70.233 976.142 70.608C975.517 70.983 974.778 71.1705 973.926 71.1705ZM973.938 69.5227C974.4 69.5227 974.786 69.3958 975.097 69.142C975.407 68.8845 975.638 68.5398 975.79 68.108C975.945 67.6761 976.023 67.1951 976.023 66.6648C976.023 66.1307 975.945 65.6477 975.79 65.2159C975.638 64.7803 975.407 64.4337 975.097 64.1761C974.786 63.9186 974.4 63.7898 973.938 63.7898C973.464 63.7898 973.07 63.9186 972.756 64.1761C972.445 64.4337 972.212 64.7803 972.057 65.2159C971.905 65.6477 971.83 66.1307 971.83 66.6648C971.83 67.1951 971.905 67.6761 972.057 68.108C972.212 68.5398 972.445 68.8845 972.756 69.142C973.07 69.3958 973.464 69.5227 973.938 69.5227ZM983.649 74.4545C982.911 74.4545 982.276 74.3542 981.746 74.1534C981.215 73.9564 980.789 73.6913 980.467 73.358C980.145 73.0246 979.922 72.6553 979.797 72.25L981.649 71.8011C981.732 71.9716 981.854 72.1402 982.013 72.3068C982.172 72.4773 982.386 72.6174 982.655 72.7273C982.928 72.8409 983.27 72.8977 983.683 72.8977C984.267 72.8977 984.75 72.7557 985.132 72.4716C985.515 72.1913 985.706 71.7292 985.706 71.0852V69.4318H985.604C985.498 69.6439 985.342 69.8617 985.138 70.0852C984.937 70.3087 984.67 70.4962 984.337 70.6477C984.007 70.7992 983.592 70.875 983.092 70.875C982.422 70.875 981.814 70.7178 981.268 70.4034C980.727 70.0852 980.295 69.6117 979.973 68.983C979.655 68.3504 979.496 67.5587 979.496 66.608C979.496 65.6496 979.655 64.8409 979.973 64.1818C980.295 63.5189 980.729 63.017 981.274 62.6761C981.82 62.3314 982.428 62.1591 983.098 62.1591C983.609 62.1591 984.03 62.2462 984.359 62.4205C984.693 62.5909 984.958 62.7973 985.155 63.0398C985.352 63.2784 985.501 63.5038 985.604 63.7159H985.717V62.2727H987.746V71.142C987.746 71.8883 987.568 72.5057 987.212 72.9943C986.856 73.483 986.369 73.8485 985.751 74.0909C985.134 74.3333 984.433 74.4545 983.649 74.4545ZM983.666 69.2614C984.102 69.2614 984.473 69.1553 984.78 68.9432C985.087 68.7311 985.32 68.4261 985.479 68.0284C985.638 67.6307 985.717 67.1534 985.717 66.5966C985.717 66.0473 985.638 65.5663 985.479 65.1534C985.323 64.7405 985.092 64.4205 984.786 64.1932C984.482 63.9621 984.109 63.8466 983.666 63.8466C983.208 63.8466 982.825 63.9659 982.518 64.2045C982.212 64.4432 981.981 64.7708 981.825 65.1875C981.67 65.6004 981.592 66.0701 981.592 66.5966C981.592 67.1307 981.67 67.5985 981.825 68C981.984 68.3977 982.217 68.7083 982.524 68.9318C982.835 69.1515 983.215 69.2614 983.666 69.2614ZM989.854 71V62.2727H991.911V71H989.854ZM990.888 61.0341C990.562 61.0341 990.282 60.9261 990.047 60.7102C989.812 60.4905 989.695 60.2273 989.695 59.9205C989.695 59.6098 989.812 59.3466 990.047 59.1307C990.282 58.911 990.562 58.8011 990.888 58.8011C991.217 58.8011 991.498 58.911 991.729 59.1307C991.964 59.3466 992.081 59.6098 992.081 59.9205C992.081 60.2273 991.964 60.4905 991.729 60.7102C991.498 60.9261 991.217 61.0341 990.888 61.0341ZM996.082 65.8864V71H994.026V62.2727H995.991V63.7557H996.094C996.295 63.267 996.615 62.8788 997.054 62.5909C997.497 62.303 998.045 62.1591 998.696 62.1591C999.298 62.1591 999.823 62.2879 1000.27 62.5455C1000.72 62.803 1001.07 63.1761 1001.32 63.6648C1001.57 64.1534 1001.69 64.7462 1001.68 65.4432V71H999.628V65.7614C999.628 65.178 999.476 64.7216 999.173 64.392C998.874 64.0625 998.459 63.8977 997.929 63.8977C997.569 63.8977 997.249 63.9773 996.969 64.1364C996.692 64.2917 996.474 64.517 996.315 64.8125C996.16 65.108 996.082 65.4659 996.082 65.8864Z" fill="white"/>
<path d="M181 527.142L195.142 513L294.279 612.137C296.231 614.089 296.231 617.255 294.279 619.208L287.208 626.279C285.255 628.231 282.089 628.231 280.137 626.279L181 527.142Z" fill="#FFEDAE"/>
<g style="mix-blend-mode:soft-light">
<rect x="149.633" y="382" width="23" height="155.044" transform="rotate(45 149.633 382)" fill="#D9D9D9"/>
</g>
<circle cx="124" cy="467" r="80" stroke="#FFEDAE" stroke-width="20"/>
<path d="M622.784 440.461C625.414 445.553 616.707 476.834 573 486C618.776 486 634.767 451.033 634.422 440.461H648L629.121 415L608.948 440.461H622.784Z" fill="#42FF00"/>
</g>
<path d="M2 32C2 15.4315 15.4315 2 32 2H1029C1045.57 2 1059 15.4315 1059 32V32H2V32Z" fill="#D9D9D9"/>
<defs>
<filter id="filter0_d_53_3" x="0" y="0" width="1069" height="782" filterUnits="userSpaceOnUse" color-interpolation-filters="sRGB">
<feFlood flood-opacity="0" result="BackgroundImageFix"/>
<feColorMatrix in="SourceAlpha" type="matrix" values="0 0 0 0 0 0 0 0 0 0 0 0 0 0 0 0 0 0 127 0" result="hardAlpha"/>
<feOffset dx="4" dy="4"/>
<feGaussianBlur stdDeviation="3"/>
<feComposite in2="hardAlpha" operator="out"/>
<feColorMatrix type="matrix" values="0 0 0 0 0.716667 0 0 0 0 0.716667 0 0 0 0 0.716667 0 0 0 0.25 0"/>
<feBlend mode="normal" in2="BackgroundImageFix" result="effect1_dropShadow_53_3"/>
<feBlend mode="normal" in="SourceGraphic" in2="effect1_dropShadow_53_3" result="shape"/>
</filter>
<filter id="filter1_d_53_3" x="209" y="43" width="467" height="48" filterUnits="userSpaceOnUse" color-interpolation-filters="sRGB">
<feFlood flood-opacity="0" result="BackgroundImageFix"/>
<feColorMatrix in="SourceAlpha" type="matrix" values="0 0 0 0 0 0 0 0 0 0 0 0 0 0 0 0 0 0 127 0" result="hardAlpha"/>
<feOffset dx="-1" dy="1"/>
<feGaussianBlur stdDeviation="2"/>
<feComposite in2="hardAlpha" operator="out"/>
<feColorMatrix type="matrix" values="0 0 0 0 0.470833 0 0 0 0 0.470833 0 0 0 0 0.470833 0 0 0 0.25 0"/>
<feBlend mode="normal" in2="BackgroundImageFix" result="effect1_dropShadow_53_3"/>
<feBlend mode="normal" in="SourceGraphic" in2="effect1_dropShadow_53_3" result="shape"/>
</filter>
</defs>
</svg>
