<svg width="1037" height="887" viewBox="0 0 1037 887" fill="none" xmlns="http://www.w3.org/2000/svg">
<ellipse cx="66.6858" cy="31.3048" rx="66.6858" ry="31.3048" transform="matrix(-0.866025 -0.5 -0.5 0.866025 725.808 739.524)" fill="url(#paint0_radial_77_135)"/>
<ellipse cx="471.277" cy="631.609" rx="296.5" ry="123" transform="rotate(-30 471.277 631.609)" fill="url(#paint1_radial_77_135)"/>
<path d="M971.492 769.782L970.115 769.323L976.95 764.929V765.96L971.492 769.782Z" fill="white" stroke="#686868" stroke-width="0.1"/>
<path d="M376.088 645.078C370.724 640.608 371.476 632.155 377.546 628.703L489.806 564.863C493.071 563.006 497.1 563.136 500.239 565.197L541.432 592.255C547.533 596.262 547.424 605.244 541.228 609.102L434.27 675.698C426.946 680.258 417.524 679.608 410.896 674.085L376.088 645.078Z" fill="#4A4A4A"/>
<path d="M372.5 632.838H373V637.838H372.5V632.838Z" fill="#4A4A4A"/>
<path d="M545.432 595.838H545.932V600.838H545.432V595.838Z" fill="#4A4A4A"/>
<path d="M376.088 640.078C370.724 635.608 371.476 627.155 377.546 623.703L489.806 559.863C493.071 558.006 497.1 558.136 500.239 560.197L541.432 587.255C547.533 591.262 547.424 600.244 541.228 604.102L434.27 670.698C426.946 675.258 417.524 674.608 410.896 669.085L376.088 640.078Z" fill="#6C6C6C"/>
<path d="M429.112 549.338L498.5 506.838V599.338L429.112 642.686V549.338Z" fill="#5F5F5F"/>
<path d="M414.5 559.339L429.12 550.378V642.688L414.5 631.838V559.339Z" fill="#575757"/>
<path d="M199.067 297.771L686.445 13.8381L686.445 413.302L199.065 713.379L199.067 297.771Z" fill="#686868"/>
<path d="M180.719 290.771L667.053 6.83823L667.832 406.302L181.529 706.379L180.719 290.771Z" fill="#686868"/>
<g filter="url(#filter0_i_77_135)">
<path d="M217.5 311.338L665.567 49.7589L665.57 397.837L217.5 674.915L217.5 311.338Z" fill="#F4F4F4"/>
</g>
<path d="M180.782 290.758L198.797 297.758L199.173 713.338L181.461 710.338L180.782 290.758Z" fill="#5D5D5D"/>
<path d="M180.72 290.768C369.981 180.143 477.716 117.424 667 6.83768L686.45 13.9381L198.8 298.338L180.72 290.768Z" fill="#5D5D5D"/>
<path d="M657 54.3379L666.5 48.8379V397.338L657 403.22V54.3379Z" fill="#5D5D5D"/>
<g filter="url(#filter1_d_77_135)">
<path d="M639.5 423.489C639.5 422.675 639.896 421.911 640.562 421.443L644.601 418.605C646.257 417.441 648.538 418.626 648.538 420.65L648.538 421.322C648.538 422.185 648.093 422.987 647.36 423.444L643.321 425.959C641.656 426.995 639.5 425.798 639.5 423.836L639.5 423.489Z" fill="#4282FF"/>
</g>
<path d="M217 668L665 388.5L665 398.662L217 675.786L217 668Z" fill="#5D5D5D"/>
<path d="M217.5 311.26L657 54.7602L657 85.4998L217.5 341.338L217.5 311.26Z" fill="#00BDBD"/>
<path d="M444.5 258.713C444.5 241.115 453.752 224.812 468.861 215.788L599.244 137.91C612.575 129.947 629.5 139.552 629.5 155.08V223.897C629.5 241.531 620.211 257.861 605.054 266.874L474.722 344.369C461.39 352.296 444.5 342.688 444.5 327.178V258.713Z" fill="#B5EDFF"/>
<path d="M240 379.028C240 361.414 249.268 345.099 264.397 336.08L394.759 258.366C408.09 250.419 425 260.024 425 275.545V344.368C425 362.018 415.695 378.36 400.517 387.367L270.207 464.698C256.875 472.61 240 463.001 240 447.499V379.028Z" fill="#FFA6A6"/>
<path d="M240 531.381C240 513.962 249.066 497.798 263.93 488.716L601.072 282.708C614.399 274.565 631.5 284.156 631.5 299.774V365.724C631.5 383.061 622.519 399.16 607.768 408.268L270.507 616.502C257.183 624.729 240 615.144 240 599.484V531.381Z" fill="#BAFFB9"/>
<path d="M458.877 184.332C458.877 182.895 459.647 181.569 460.895 180.857L489.187 164.715C490.521 163.954 492.179 164.917 492.179 166.452L492.179 169.426C492.179 170.855 491.416 172.176 490.179 172.891L461.877 189.23C460.544 190 458.877 189.038 458.877 187.498L458.877 184.332Z" fill="white"/>
<path d="M510.62 153.743C510.748 152.456 511.491 151.31 512.614 150.667L548.868 129.935C550.279 129.128 552.012 130.252 551.851 131.869L551.516 135.227C551.389 136.509 550.652 137.651 549.536 138.295L513.254 159.242C511.843 160.057 510.102 158.933 510.264 157.312L510.62 153.743Z" fill="white"/>
<path d="M567.005 122.112C567.005 120.702 567.747 119.396 568.959 118.675L586.818 108.048C588.151 107.254 589.841 108.215 589.841 109.766L589.841 112.541C589.841 113.963 589.085 115.279 587.856 115.996L570.012 126.406C568.679 127.184 567.005 126.222 567.005 124.678L567.005 122.112Z" fill="white"/>
<path d="M604.683 99.7576C604.63 98.2703 605.406 96.8764 606.699 96.1394L632.339 81.526C633.645 80.7817 635.275 81.6899 635.328 83.192L635.43 86.0361C635.483 87.5155 634.715 88.9032 633.433 89.6433L607.79 104.448C606.484 105.202 604.845 104.295 604.791 102.788L604.683 99.7576Z" fill="white"/>
<path d="M240 301.844L242.27 300.562C247.592 297.557 254.178 301.402 254.178 307.513C254.178 312.009 251.659 316.126 247.655 318.173L240 322.088V301.844Z" fill="#E9EE00"/>
<path d="M240 314.838L254.186 307.838C254.186 312.726 251.377 317.178 246.966 319.282L240 322.604V314.838Z" fill="#FF5924"/>
<path d="M240 305.845L242.971 304.015C246.48 301.854 251 304.378 251 308.5C251 311.174 249.54 313.636 247.193 314.919L240 318.849V305.845Z" fill="#00BDBD"/>
<path d="M236.5 304.338L240 301.838L240 322.594L236 324.338L236.5 304.338Z" fill="#9DE600"/>
<ellipse cx="792.382" cy="654.555" rx="181.248" ry="83.247" transform="rotate(30 792.382 654.555)" fill="url(#paint2_radial_77_135)"/>
<path d="M671.843 308.375C671.843 292.822 688.85 283.251 702.146 291.322L957.213 446.159C972.133 455.216 981.243 471.404 981.243 488.858V707.962C981.243 723.345 964.568 732.94 951.268 725.21L696.694 577.252C681.309 568.311 671.843 551.86 671.843 534.066V308.375Z" fill="#F6F6F6" stroke="#686868" stroke-width="0.1"/>
<path d="M788.793 371.692C788.793 370.863 789.687 370.339 790.41 370.746L816.843 385.585C817.121 385.741 817.293 386.035 817.293 386.354C817.293 387.023 816.578 387.449 815.99 387.129L789.36 372.646C789.011 372.456 788.793 372.09 788.793 371.692Z" fill="#7B7B7B"/>
<path d="M672.75 297.569L680.216 292.177L679.75 294.303L672.75 297.569Z" fill="white" stroke="#686868" stroke-width="0.1"/>
<path d="M664.843 313.375C664.843 297.822 681.85 288.251 695.146 296.322L950.213 451.159C965.133 460.216 974.243 476.404 974.243 493.858V712.962C974.243 728.345 957.568 737.94 944.268 730.21L689.694 582.252C674.309 573.311 664.843 556.86 664.843 539.066V313.375Z" fill="white" stroke="#686868" stroke-width="0.1"/>
<path d="M679.729 292.584L680.793 291.803L680.793 293.768L679.729 294.014V292.584Z" fill="white"/>
<path d="M970.413 724.838L971.493 723.338L972.293 724.538L971.293 725.218L970.413 724.838Z" fill="white"/>
<g filter="url(#filter2_i_77_135)">
<path d="M684.795 536.951C684.795 542.386 687.735 547.396 692.48 550.046L936.353 686.261C939.686 688.122 943.791 685.713 943.791 681.895L943.792 495.36C943.792 490.162 941.102 485.335 936.682 482.602L814.293 406.919L692.422 331.556C689.091 329.496 684.793 331.892 684.793 335.809L684.795 536.951Z" fill="#F4F4F4"/>
</g>
<path d="M794.596 620.226C795.048 622.792 794.746 625.237 793.895 627.114C793.044 628.991 791.651 630.29 789.926 630.595C788.2 630.899 786.446 630.154 785.005 628.681C783.564 627.209 782.443 625.015 781.99 622.449C781.538 619.883 781.841 617.438 782.691 615.561C783.542 613.684 784.935 612.385 786.661 612.08C788.387 611.776 790.14 612.521 791.582 613.994C793.023 615.467 794.143 617.66 794.596 620.226Z" fill="white" stroke="#A5A5A5" stroke-width="0.2"/>
<path d="M785.043 618.547C785.043 617.974 785.661 617.613 786.161 617.894L789.651 619.857C790.202 620.167 790.543 620.75 790.543 621.382V624.092C790.543 624.672 789.914 625.032 789.414 624.739L787.92 623.864L785.908 622.685C785.372 622.371 785.043 621.796 785.043 621.175V618.547Z" stroke="#6A6A6A" stroke-width="0.5"/>
<path d="M943.817 495.374C943.817 490.176 941.127 485.349 936.706 482.616L692.423 331.556C689.092 329.496 684.793 331.892 684.793 335.808L684.793 357.577L943.817 513.838L943.817 495.374Z" fill="#00BDBD"/>
<path d="M755.495 391.535C755.47 392.971 756.217 394.311 757.452 395.044L785.459 411.678C786.779 412.462 788.453 411.528 788.48 409.993L788.532 407.019C788.557 405.59 787.818 404.257 786.593 403.521L758.581 386.689C757.261 385.896 755.578 386.829 755.551 388.369L755.495 391.535Z" fill="white"/>
<path d="M806.696 423.022C806.802 424.312 807.525 425.47 808.637 426.132L844.523 447.494C845.92 448.326 847.673 447.232 847.54 445.612L847.264 442.249C847.158 440.965 846.441 439.811 845.337 439.147L809.426 417.57C808.03 416.731 806.27 417.824 806.403 419.448L806.696 423.022Z" fill="white"/>
<path d="M861.387 455.604C861.387 457.019 862.134 458.328 863.351 459.048L882.058 470.107C883.392 470.896 885.076 469.935 885.076 468.386L885.076 465.62C885.076 464.206 884.329 462.896 883.111 462.176L864.404 451.121C863.071 450.333 861.387 451.294 861.387 452.843L861.387 455.604Z" fill="white"/>
<path d="M899.803 478.641C899.724 480.127 900.476 481.535 901.756 482.294L927.137 497.353C928.43 498.12 930.075 497.24 930.155 495.739L930.306 492.897C930.385 491.419 929.641 490.018 928.372 489.256L902.991 474.005C901.699 473.229 900.044 474.108 899.964 475.613L899.803 478.641Z" fill="white"/>
<path d="M702.046 364.299C707.024 367.708 713.786 364.143 713.786 358.109V357.73C713.786 353.753 711.74 350.055 708.371 347.942L702.046 343.976V364.299Z" fill="#FF5924"/>
<path d="M702.092 350.838L713.793 357.838C713.793 352.913 711.082 348.388 706.738 346.066L702.092 343.581V350.838Z" fill="#E9EE00"/>
<path d="M701.793 360.842L702.912 361.32C706.266 362.755 709.994 360.294 709.994 356.647V356.488C709.994 354.216 708.853 352.096 706.958 350.843L701.793 347.838V360.842Z" fill="#00BDBD"/>
<path d="M699.206 361.838L702.092 364.338L702.092 343.582L698.793 341.838L699.206 361.838Z" fill="#9DE600"/>
<path d="M808.365 463.987C808.365 453.372 802.755 443.547 793.613 438.151L723.417 396.722C713.418 390.82 700.793 398.029 700.793 409.64V438.171C700.793 448.807 706.424 458.647 715.593 464.036L785.765 505.274C795.764 511.15 808.365 503.94 808.365 492.341V463.987Z" fill="#B5EDFF"/>
<path d="M925.793 534.457C925.793 524.011 920.359 514.316 911.448 508.865L841.783 466.252C831.788 460.138 818.956 467.331 818.956 479.048V507.405C818.956 517.871 824.411 527.581 833.349 533.026L902.99 575.447C912.986 581.536 925.793 574.341 925.793 562.637V534.457Z" fill="#FFA6A6"/>
<path d="M920.793 613.693C920.793 602.956 915.055 593.038 905.747 587.686L723.27 482.762C713.27 477.012 700.793 484.231 700.793 495.766V522.699C700.793 533.502 706.601 543.47 715.998 548.797L898.395 652.203C908.395 657.872 920.793 650.649 920.793 639.154V613.693Z" fill="#BAFFB9"/>
<path d="M609.422 473.858C609.422 470.797 612.752 468.899 615.385 470.46L698.944 519.976C701.968 521.768 703.822 525.021 703.822 528.536V742.04C703.822 745.052 700.586 746.955 697.953 745.493L614.539 699.152C611.381 697.397 609.422 694.067 609.422 690.454V473.858Z" fill="#464646" stroke="#686868" stroke-width="0.1"/>
<path d="M703.819 742.141C703.819 746.808 700.036 750.591 695.369 750.591C690.703 750.591 686.919 746.808 686.919 742.141C686.919 737.474 690.703 733.691 695.369 733.691C700.036 733.691 703.819 737.474 703.819 742.141Z" fill="#464646" stroke="#686868" stroke-width="0.1"/>
<path d="M619.294 477.652C619.294 482.319 615.511 486.102 610.844 486.102C606.178 486.102 602.394 482.319 602.394 477.652C602.394 472.986 606.178 469.202 610.844 469.202C615.511 469.202 619.294 472.986 619.294 477.652Z" fill="#464646" stroke="#686868" stroke-width="0.1"/>
<path d="M602.422 477.858C602.422 474.797 605.752 472.899 608.385 474.46L691.944 523.976C694.968 525.768 696.822 529.021 696.822 532.536V746.04C696.822 749.052 693.586 750.955 690.953 749.493L607.539 703.152C604.381 701.397 602.422 698.067 602.422 694.454V477.858Z" fill="#464646" stroke="#686868" stroke-width="0.1"/>
<path d="M602.475 478.056C602.474 474.955 605.849 473.033 608.516 474.615L691.847 524.062C694.883 525.864 696.744 529.132 696.744 532.662V745.76C696.744 748.809 693.469 750.737 690.803 749.257L607.646 703.094C604.47 701.331 602.5 697.985 602.499 694.352L602.475 478.056Z" fill="#F4F4F4"/>
<path d="M696.872 733.338H703.768L703.768 742.338H696.872L696.872 733.338Z" fill="#464646"/>
<path d="M615.012 470.338L621.862 474.379L620.372 481.483L610.872 475.838L615.012 470.338Z" fill="#464646"/>
<path d="M696.744 532.634C696.744 529.102 694.882 525.833 691.845 524.032L608.36 474.53C605.76 472.988 602.471 474.862 602.471 477.885L602.471 499.838L696.744 551.838L696.744 532.634Z" fill="#00BDBD"/>
<path d="M682.344 529.838L688.344 532.838V533.838L682.344 530.838V529.838Z" fill="white"/>
<path d="M682.344 531.838L688.344 534.838V535.838L682.344 532.838V531.838Z" fill="white"/>
<path d="M682.344 533.838L688.344 536.838V537.838L682.344 534.838V533.838Z" fill="white"/>
<path d="M613.01 500.248C617.091 503.043 622.633 500.121 622.633 495.175V494.864C622.633 491.604 620.957 488.573 618.195 486.841L613.01 483.59V500.248Z" fill="#FF5924"/>
<path d="M613.049 489.215L622.64 494.953C622.64 490.916 620.417 487.207 616.857 485.303L613.049 483.267V489.215Z" fill="#E9EE00"/>
<path d="M612.803 497.415L613.72 497.807C616.469 498.983 619.525 496.966 619.525 493.976V493.846C619.525 491.984 618.591 490.246 617.037 489.219L612.803 486.756V497.415Z" fill="#00BDBD"/>
<path d="M610.682 498.231L613.049 500.281L613.049 483.267L610.344 481.838L610.682 498.231Z" fill="#9DE600"/>
<path d="M687.619 579.154C687.619 568.539 682.009 558.714 672.867 553.318L632.468 529.475C622.469 523.573 609.844 530.782 609.844 542.393V561.567C609.844 572.211 615.483 582.057 624.663 587.443L665.028 611.125C675.028 616.992 687.619 609.781 687.619 598.188V579.154Z" fill="#B5EDFF"/>
<path d="M687.119 649.87C687.119 639.255 681.509 629.43 672.367 624.034L631.969 600.191C621.969 594.289 609.344 601.498 609.344 613.109V632.283C609.344 642.927 614.983 652.773 624.163 658.159L664.528 681.841C674.528 687.708 687.119 680.498 687.119 668.904V649.87Z" fill="#FFA6A6"/>
<path d="M687.12 720.87C687.12 710.255 681.51 700.43 672.368 695.034L631.969 671.191C621.97 665.289 609.345 672.498 609.345 684.109V691.838L687.12 737.338V720.87Z" fill="#BAFFB9"/>
<path d="M602.5 691.338L696.727 744.475V745.553C696.727 748.6 693.457 750.528 690.791 749.053L607.659 703.055C604.476 701.294 602.5 697.943 602.5 694.305V691.338Z" fill="url(#paint3_linear_77_135)"/>
<defs>
<filter id="filter0_i_77_135" x="213.5" y="45.7588" width="452.07" height="629.156" filterUnits="userSpaceOnUse" color-interpolation-filters="sRGB">
<feFlood flood-opacity="0" result="BackgroundImageFix"/>
<feBlend mode="normal" in="SourceGraphic" in2="BackgroundImageFix" result="shape"/>
<feColorMatrix in="SourceAlpha" type="matrix" values="0 0 0 0 0 0 0 0 0 0 0 0 0 0 0 0 0 0 127 0" result="hardAlpha"/>
<feOffset dx="-10" dy="-5"/>
<feGaussianBlur stdDeviation="2"/>
<feComposite in2="hardAlpha" operator="arithmetic" k2="-1" k3="1"/>
<feColorMatrix type="matrix" values="0 0 0 0 0.741667 0 0 0 0 0.741667 0 0 0 0 0.741667 0 0 0 1 0"/>
<feBlend mode="normal" in2="shape" result="effect1_innerShadow_77_135"/>
</filter>
<filter id="filter1_d_77_135" x="629.5" y="408.146" width="29.0385" height="28.1943" filterUnits="userSpaceOnUse" color-interpolation-filters="sRGB">
<feFlood flood-opacity="0" result="BackgroundImageFix"/>
<feColorMatrix in="SourceAlpha" type="matrix" values="0 0 0 0 0 0 0 0 0 0 0 0 0 0 0 0 0 0 127 0" result="hardAlpha"/>
<feOffset/>
<feGaussianBlur stdDeviation="5"/>
<feComposite in2="hardAlpha" operator="out"/>
<feColorMatrix type="matrix" values="0 0 0 0 0 0 0 0 0 0.341176 0 0 0 0 1 0 0 0 1 0"/>
<feBlend mode="normal" in2="BackgroundImageFix" result="effect1_dropShadow_77_135"/>
<feBlend mode="normal" in="SourceGraphic" in2="effect1_dropShadow_77_135" result="shape"/>
</filter>
<filter id="filter2_i_77_135" x="684.793" y="329.801" width="259" height="357.102" filterUnits="userSpaceOnUse" color-interpolation-filters="sRGB">
<feFlood flood-opacity="0" result="BackgroundImageFix"/>
<feBlend mode="normal" in="SourceGraphic" in2="BackgroundImageFix" result="shape"/>
<feColorMatrix in="SourceAlpha" type="matrix" values="0 0 0 0 0 0 0 0 0 0 0 0 0 0 0 0 0 0 127 0" result="hardAlpha"/>
<feOffset dy="-1"/>
<feGaussianBlur stdDeviation="2"/>
<feComposite in2="hardAlpha" operator="arithmetic" k2="-1" k3="1"/>
<feColorMatrix type="matrix" values="0 0 0 0 0.945833 0 0 0 0 0.945833 0 0 0 0 0.945833 0 0 0 1 0"/>
<feBlend mode="normal" in2="shape" result="effect1_innerShadow_77_135"/>
</filter>
<radialGradient id="paint0_radial_77_135" cx="0" cy="0" r="1" gradientUnits="userSpaceOnUse" gradientTransform="translate(66.6858 31.3048) rotate(87.4787) scale(30.3575 64.703)">
<stop offset="0.0001" stop-color="#B9B9B9"/>
<stop offset="1" stop-color="#D9D9D9" stop-opacity="0"/>
</radialGradient>
<radialGradient id="paint1_radial_77_135" cx="0" cy="0" r="1" gradientUnits="userSpaceOnUse" gradientTransform="translate(471.277 631.609) rotate(87.1474) scale(119.31 287.606)">
<stop stop-color="#D9D9D9"/>
<stop offset="0.0001" stop-color="#6F6F6F"/>
<stop offset="1" stop-color="#D9D9D9" stop-opacity="0"/>
</radialGradient>
<radialGradient id="paint2_radial_77_135" cx="0" cy="0" r="1" gradientUnits="userSpaceOnUse" gradientTransform="translate(792.382 654.555) rotate(87.4231) scale(80.7314 175.851)">
<stop offset="0.0001" stop-color="#B9B9B9"/>
<stop offset="1" stop-color="#D9D9D9" stop-opacity="0"/>
</radialGradient>
<linearGradient id="paint3_linear_77_135" x1="646.5" y1="715.338" x2="643" y2="721.838" gradientUnits="userSpaceOnUse">
<stop stop-color="white" stop-opacity="0"/>
<stop offset="1" stop-color="white"/>
</linearGradient>
</defs>
</svg>
